####
#
# OBJ File Generated by Meshlab
#
####
# Object cycler.obj
#
# Vertices: 152
# Faces: 228
#
####
mtllib cycler.obj.mtl

vn 1.000000 -1.000000 -2.000000
v 4.000000 -0.000000 0.000000
vn -2.000000 -2.000000 -1.000000
v 3.000000 -0.000000 0.000000
vn -1.000000 1.000000 -2.000000
v 3.000000 1.000000 0.000000
vn 2.000000 2.000000 -1.000000
v 4.000000 1.000000 0.000000
vn -1.000000 -1.000000 2.000000
v 3.000000 -0.000000 3.000000
vn 2.000000 -2.000000 1.000000
v 4.000000 -0.000000 3.000000
vn 1.000000 1.000000 2.000000
v 4.000000 1.000000 3.000000
vn -2.000000 2.000000 1.000000
v 3.000000 1.000000 3.000000
vn 1.000000 -1.000000 -2.000000
v 11.000000 -3.000001 0.000000
vn -2.000000 -2.000000 -1.000000
v -13.000000 -2.999999 0.000000
vn -1.000000 1.000000 -2.000000
v -13.000000 0.000001 0.000000
vn 2.000000 2.000000 -1.000000
v 11.000000 -0.000001 0.000000
vn -1.000000 -1.000000 2.000000
v -13.000000 -2.999999 3.000000
vn 2.000000 -2.000000 1.000000
v 11.000000 -3.000001 3.000000
vn 1.000000 1.000000 2.000000
v 11.000000 -0.000001 3.000000
vn -2.000000 2.000000 1.000000
v -13.000000 0.000001 3.000000
vn 1.000000 -1.000000 -2.000000
v 9.000000 -1.500001 0.500000
vn -2.000000 -2.000000 -1.000000
v -48.000000 -1.499996 0.500000
vn -1.000000 1.000000 -2.000000
v -48.000000 0.500004 0.500000
vn 2.000000 2.000000 -1.000000
v 9.000000 0.499999 0.500000
vn -1.000000 -1.000000 2.000000
v -48.000000 -1.499996 2.500000
vn 2.000000 -2.000000 1.000000
v 9.000000 -1.500001 2.500000
vn 1.000000 1.000000 2.000000
v 9.000000 0.499999 2.500000
vn -2.000000 2.000000 1.000000
v -48.000000 0.500004 2.500000
vn 1.000000 -1.000000 -2.000000
v -18.000000 -1.999998 0.000000
vn -2.000000 -2.000000 -1.000000
v -19.000000 -1.999998 0.000000
vn -1.000000 1.000000 -2.000000
v -19.000000 1.000002 0.000000
vn 2.000000 2.000000 -1.000000
v -18.000000 1.000002 0.000000
vn -1.000000 -1.000000 2.000000
v -19.000000 -1.999998 3.000000
vn 2.000000 -2.000000 1.000000
v -18.000000 -1.999998 3.000000
vn 1.000000 1.000000 2.000000
v -18.000000 1.000002 3.000000
vn -2.000000 2.000000 1.000000
v -19.000000 1.000002 3.000000
vn 0.663933 -1.248677 -2.000000
v 16.500000 -5.000001 0.000000
vn -2.497353 -1.327867 -1.000000
v 9.805866 -2.953399 0.000000
vn -0.663933 1.248676 -2.000000
v 10.682981 -0.084485 0.000000
vn 2.497353 1.327866 -1.000000
v 17.377115 -2.131087 0.000000
vn -1.248677 -0.663933 2.000000
v 9.805866 -2.953399 3.000000
vn 1.327866 -2.497353 1.000000
v 16.500000 -5.000001 3.000000
vn 1.248676 0.663933 2.000000
v 17.377115 -2.131087 3.000000
vn -1.327866 2.497352 1.000000
v 10.682981 -0.084485 3.000000
vn 1.000000 -1.000000 -2.000000
v -5.000000 3.500000 1.000000
vn -2.000000 -2.000000 -1.000000
v -6.000000 3.500000 1.000000
vn -1.000000 1.000000 -2.000000
v -6.000000 4.500000 1.000000
vn 2.000000 2.000000 -1.000000
v -5.000000 4.500000 1.000000
vn -1.000000 -1.000000 2.000000
v -6.000000 3.500000 2.000000
vn 2.000000 -2.000000 1.000000
v -5.000000 3.500000 2.000000
vn 1.000000 1.000000 2.000000
v -5.000000 4.500000 2.000000
vn -2.000000 2.000000 1.000000
v -6.000000 4.500000 2.000000
vn 1.000000 -1.000000 -2.000000
v 23.500000 -5.000002 0.000000
vn -2.000000 -2.000000 -1.000000
v 16.500000 -5.000001 0.000000
vn -1.000000 1.000000 -2.000000
v 16.500000 -2.000001 0.000000
vn 2.000000 2.000000 -1.000000
v 23.500000 -2.000002 0.000000
vn -1.000000 -1.000000 2.000000
v 16.500000 -5.000001 3.000000
vn 2.000000 -2.000000 1.000000
v 23.500000 -5.000002 3.000000
vn 1.000000 1.000000 2.000000
v 23.500000 -2.000002 3.000000
vn -2.000000 2.000000 1.000000
v 16.500000 -2.000001 3.000000
vn 1.248676 -0.663933 -2.000000
v 12.694134 -3.953399 1.000000
vn -1.327866 -2.497354 -1.000000
v 6.000000 -6.000000 1.000000
vn -1.248676 0.663932 -2.000000
v 5.707628 -5.043696 1.000000
vn 1.327866 2.497354 -1.000000
v 12.401762 -2.997095 1.000000
vn -0.663933 -1.248677 2.000000
v 6.000000 -6.000000 2.000000
vn 2.497353 -1.327865 1.000000
v 12.694134 -3.953399 2.000000
vn 0.663933 1.248677 2.000000
v 12.401762 -2.997095 2.000000
vn -2.497352 1.327865 1.000000
v 5.707628 -5.043696 2.000000
vn 1.000000 -1.000000 -2.000000
v -8.000000 0.000001 0.000000
vn -2.000000 -2.000000 -1.000000
v -9.000000 0.000001 0.000000
vn -0.999999 1.000000 -2.000000
v -9.000000 4.000001 0.000000
vn 2.000002 2.000000 -1.000000
v -8.000000 4.000000 0.000000
vn -1.000000 -1.000000 2.000000
v -9.000000 0.000001 3.000000
vn 2.000000 -2.000000 1.000000
v -8.000000 0.000001 3.000000
vn 1.000001 1.000000 2.000000
v -8.000000 4.000000 3.000000
vn -1.999998 2.000000 1.000000
v -9.000000 4.000001 3.000000
vn 0.831254 -1.144122 -2.000000
v 27.438442 -4.282175 0.000000
vn -2.288246 -1.662507 -1.000000
v 22.500000 -3.500002 0.000000
vn -0.831254 1.144123 -2.000000
v 23.282173 1.438440 0.000000
vn 2.288246 1.662508 -1.000000
v 28.220613 0.656267 0.000000
vn -1.144123 -0.831254 2.000000
v 22.500000 -3.500002 3.000000
vn 1.662507 -2.288245 1.000000
v 27.438442 -4.282175 3.000000
vn 1.144123 0.831254 2.000000
v 28.220613 0.656267 3.000000
vn -1.662507 2.288246 1.000000
v 23.282173 1.438440 3.000000
vn 1.000000 -1.000000 -2.000000
v -42.000000 0.500004 1.000000
vn -2.000000 -2.000000 -1.000000
v -43.000000 0.500004 1.000000
vn -1.000000 1.000000 -2.000000
v -43.000000 1.500004 1.000000
vn 2.000000 2.000000 -1.000000
v -42.000000 1.500004 1.000000
vn -1.000000 -1.000000 2.000000
v -43.000000 0.500004 2.000000
vn 2.000000 -2.000000 1.000000
v -42.000000 0.500004 2.000000
vn 1.000000 1.000000 2.000000
v -42.000000 1.500004 2.000000
vn -2.000000 2.000000 1.000000
v -43.000000 1.500004 2.000000
vn 1.186059 -0.770236 -2.000000
v 28.430296 -7.351182 0.000000
vn -1.540472 -2.372119 -1.000000
v 23.539558 -8.390739 0.000000
vn -1.186059 0.770236 -2.000000
v 22.500000 -3.500002 0.000000
vn 1.540472 2.372119 -1.000000
v 27.390738 -2.460444 0.000000
vn -0.770236 -1.186059 2.000000
v 23.539558 -8.390739 3.000000
vn 2.372118 -1.540472 1.000000
v 28.430296 -7.351182 3.000000
vn 0.770236 1.186059 2.000000
v 27.390738 -2.460444 3.000000
vn -2.372118 1.540472 1.000000
v 22.500000 -3.500002 3.000000
vn 1.000000 -1.000000 -2.000000
v -41.000000 -2.999996 1.000000
vn -2.000000 -2.000000 -1.000000
v -43.000000 -2.999996 1.000000
vn -1.000000 1.000000 -2.000000
v -43.000000 -0.999996 1.000000
vn 2.000000 2.000000 -1.000000
v -41.000000 -0.999996 1.000000
vn -1.000000 -1.000000 2.000000
v -43.000000 -2.999996 2.000000
vn 2.000000 -2.000000 1.000000
v -41.000000 -2.999996 2.000000
vn 1.000000 1.000000 2.000000
v -41.000000 -0.999996 2.000000
vn -2.000000 2.000000 1.000000
v -43.000000 -0.999996 2.000000
vn 1.000000 -1.000000 -2.000000
v 1.000000 1.500000 0.500000
vn -2.000000 -2.000000 -1.000000
v -12.000000 1.500001 0.500000
vn -1.000000 1.000000 -2.000000
v -12.000000 3.500001 0.500000
vn 2.000000 2.000000 -1.000000
v 1.000000 3.500000 0.500000
vn -1.000000 -1.000000 2.000000
v -12.000000 1.500001 2.500000
vn 2.000000 -2.000000 1.000000
v 1.000000 1.500000 2.500000
vn 1.000000 1.000000 2.000000
v 1.000000 3.500000 2.500000
vn -2.000000 2.000000 1.000000
v -12.000000 3.500001 2.500000
vn 1.000000 -1.000000 -2.000000
v 7.000000 -4.500000 0.000000
vn -2.000000 -2.000000 -1.000000
v 6.000000 -4.500000 0.000000
vn -0.999999 1.000000 -2.000000
v 6.000000 -2.500000 0.000000
vn 2.000002 2.000000 -1.000000
v 7.000000 -2.500001 0.000000
vn -1.000000 -1.000000 2.000000
v 6.000000 -4.500000 1.000000
vn 2.000000 -2.000000 1.000000
v 7.000000 -4.500000 1.000000
vn 1.000001 1.000000 2.000000
v 7.000000 -2.500001 1.000000
vn -1.999998 2.000000 1.000000
v 6.000000 -2.500000 1.000000
vn 1.000000 -1.000000 -2.000000
v -38.000000 -1.999997 0.000000
vn -2.000000 -2.000000 -1.000000
v -39.000000 -1.999997 0.000000
vn -1.000000 1.000000 -2.000000
v -39.000000 1.000003 0.000000
vn 2.000000 2.000000 -1.000000
v -38.000000 1.000003 0.000000
vn -1.000000 -1.000000 2.000000
v -39.000000 -1.999997 3.000000
vn 2.000000 -2.000000 1.000000
v -38.000000 -1.999997 3.000000
vn 1.000000 1.000000 2.000000
v -38.000000 1.000003 3.000000
vn -2.000000 2.000000 1.000000
v -39.000000 1.000003 3.000000
vn 1.000000 -1.000000 -2.000000
v -12.000000 1.000001 0.000000
vn -2.000000 -2.000000 -1.000000
v -17.000000 1.000001 0.000000
vn -1.000000 1.000000 -2.000000
v -17.000000 4.000001 0.000000
vn 2.000000 2.000000 -1.000000
v -12.000000 4.000001 0.000000
vn -1.000000 -1.000000 2.000000
v -17.000000 1.000001 3.000000
vn 2.000000 -2.000000 1.000000
v -12.000000 1.000001 3.000000
vn 1.000000 1.000000 2.000000
v -12.000000 4.000001 3.000000
vn -2.000000 2.000000 1.000000
v -17.000000 4.000001 3.000000
vn 0.342129 -1.372205 -2.000000
v 6.000000 -6.000000 1.000000
vn -2.744411 -0.684258 -1.000000
v 0.856996 -2.909771 1.000000
vn -0.342129 1.372205 -2.000000
v 1.372034 -2.052604 1.000000
vn 2.744411 0.684258 -1.000000
v 6.515038 -5.142833 1.000000
vn -1.372205 -0.342129 2.000000
v 0.856996 -2.909771 2.000000
vn 0.684258 -2.744411 1.000000
v 6.000000 -6.000000 2.000000
vn 1.372205 0.342129 2.000000
v 6.515038 -5.142833 2.000000
vn -0.684258 2.744411 1.000000
v 1.372034 -2.052604 2.000000
vn 1.000000 -1.000000 -2.000000
v -2.000000 0.000000 0.000000
vn -2.000000 -2.000000 -1.000000
v -3.000000 0.000000 0.000000
vn -1.000000 1.000000 -2.000000
v -3.000000 4.000000 0.000000
vn 2.000000 2.000000 -1.000000
v -2.000000 4.000000 0.000000
vn -1.000000 -1.000000 2.000000
v -3.000000 0.000000 3.000000
vn 2.000000 -2.000000 1.000000
v -2.000000 0.000000 3.000000
vn 1.000000 1.000000 2.000000
v -2.000000 4.000000 3.000000
vn -2.000000 2.000000 1.000000
v -3.000000 4.000000 3.000000
# 152 vertices, 0 vertices normals


usemtl material_0
vt 0.052734 0.955078
vt 0.054688 0.955078
vt 0.054688 0.957031
f 1/1/1 2/2/2 3/3/3
vt 0.052734 0.957031
f 1/1/1 3/3/3 4/4/4
vt 0.060547 0.955078
vt 0.062500 0.955078
vt 0.062500 0.957031
f 5/5/5 6/6/6 7/7/7
vt 0.060547 0.957031
f 5/5/5 7/7/7 8/8/8
vt 0.054688 0.962891
f 4/4/4 3/3/3 8/9/8
vt 0.052734 0.962891
f 4/4/4 8/9/8 7/10/7
vt 0.056641 0.957031
vt 0.056641 0.962891
f 6/3/6 5/11/5 2/12/2
f 6/3/6 2/12/2 1/9/1
vt 0.046875 0.955078
f 6/13/6 1/1/1 4/4/4
vt 0.046875 0.957031
f 6/13/6 4/4/4 7/14/7
f 2/2/2 5/5/5 8/8/8
f 2/2/2 8/8/8 3/3/3
vt 0.005859 0.755859
vt 0.052734 0.755859
vt 0.052734 0.761719
f 9/15/9 10/16/10 11/17/11
vt 0.005859 0.761719
f 9/15/9 11/17/11 12/18/12
vt 0.058594 0.755859
vt 0.105469 0.755859
vt 0.105469 0.761719
f 13/19/13 14/20/14 15/21/15
vt 0.058594 0.761719
f 13/19/13 15/21/15 16/22/16
vt 0.052734 0.767578
f 12/18/12 11/17/11 16/23/16
vt 0.005859 0.767578
f 12/18/12 16/23/16 15/24/15
vt 0.099609 0.761719
vt 0.099609 0.767578
f 14/17/14 13/25/13 10/26/10
f 14/17/14 10/26/10 9/23/9
vt 0.000000 0.755859
f 14/27/14 9/15/9 12/18/12
vt 0.000000 0.761719
f 14/27/14 12/18/12 15/28/15
f 10/16/10 13/19/13 16/22/16
f 10/16/10 16/22/16 11/17/11
vt 0.003906 0.808594
vt 0.115234 0.808594
vt 0.115234 0.812500
f 17/29/17 18/30/18 19/31/19
vt 0.003906 0.812500
f 17/29/17 19/31/19 20/32/20
vt 0.119141 0.808594
vt 0.230469 0.808594
vt 0.230469 0.812500
f 21/33/21 22/34/22 23/35/23
vt 0.119141 0.812500
f 21/33/21 23/35/23 24/36/24
vt 0.115234 0.816406
f 20/32/20 19/31/19 24/37/24
vt 0.003906 0.816406
f 20/32/20 24/37/24 23/38/23
vt 0.226563 0.812500
vt 0.226563 0.816406
f 22/31/22 21/39/21 18/40/18
f 22/31/22 18/40/18 17/37/17
vt 0.000000 0.808594
f 22/41/22 17/29/17 20/32/20
vt 0.000000 0.812500
f 22/41/22 20/32/20 23/42/23
f 18/30/18 21/33/21 24/36/24
f 18/30/18 24/36/24 19/31/19
vt 0.058594 0.921875
vt 0.060547 0.921875
vt 0.060547 0.927734
f 25/43/25 26/44/26 27/45/27
vt 0.058594 0.927734
f 25/43/25 27/45/27 28/46/28
vt 0.066406 0.921875
vt 0.068359 0.921875
vt 0.068359 0.927734
f 29/47/29 30/48/30 31/49/31
vt 0.066406 0.927734
f 29/47/29 31/49/31 32/50/32
vt 0.060547 0.933594
f 28/46/28 27/45/27 32/51/32
vt 0.058594 0.933594
f 28/46/28 32/51/32 31/52/31
vt 0.062500 0.927734
vt 0.062500 0.933594
f 30/45/30 29/53/29 26/54/26
f 30/45/30 26/54/26 25/51/25
vt 0.052734 0.921875
f 30/55/30 25/43/25 28/46/28
vt 0.052734 0.927734
f 30/55/30 28/46/28 31/56/31
f 26/44/26 29/47/29 32/50/32
f 26/44/26 32/50/32 27/45/27
vt 0.005859 0.771484
vt 0.019531 0.771484
vt 0.019531 0.777344
f 33/57/33 34/58/34 35/59/35
vt 0.005859 0.777344
f 33/57/33 35/59/35 36/60/36
vt 0.025391 0.771484
vt 0.039063 0.771484
vt 0.039063 0.777344
f 37/61/37 38/62/38 39/63/39
vt 0.025391 0.777344
f 37/61/37 39/63/39 40/64/40
vt 0.019531 0.783203
f 36/60/36 35/59/35 40/65/40
vt 0.005859 0.783203
f 36/60/36 40/65/40 39/66/39
vt 0.033203 0.777344
vt 0.033203 0.783203
f 38/59/38 37/67/37 34/68/34
f 38/59/38 34/68/34 33/65/33
vt 0.000000 0.771484
f 38/69/38 33/57/33 36/60/36
vt 0.000000 0.777344
f 38/69/38 36/60/36 39/70/39
f 34/58/34 37/61/37 40/64/40
f 34/58/34 40/64/40 35/59/35
vt 0.003906 0.937500
vt 0.005859 0.937500
vt 0.005859 0.939453
f 41/71/41 42/72/42 43/73/43
vt 0.003906 0.939453
f 41/71/41 43/73/43 44/74/44
vt 0.007813 0.937500
vt 0.009766 0.937500
vt 0.009766 0.939453
f 45/75/45 46/76/46 47/77/47
vt 0.007813 0.939453
f 45/75/45 47/77/47 48/78/48
vt 0.005859 0.941406
f 44/74/44 43/73/43 48/79/48
vt 0.003906 0.941406
f 44/74/44 48/79/48 47/80/47
vt 0.007813 0.941406
f 46/73/46 45/78/45 42/81/42
f 46/73/46 42/81/42 41/79/41
vt 0.001953 0.937500
f 46/82/46 41/71/41 44/74/44
vt 0.001953 0.939453
f 46/82/46 44/74/44 47/83/47
f 42/72/42 45/75/45 48/78/48
f 42/72/42 48/78/48 43/73/43
vt 0.005859 0.789063
vt 0.019531 0.789063
vt 0.019531 0.794922
f 49/84/49 50/85/50 51/86/51
vt 0.005859 0.794922
f 49/84/49 51/86/51 52/87/52
vt 0.025391 0.789063
vt 0.039063 0.789063
vt 0.039063 0.794922
f 53/88/53 54/89/54 55/90/55
vt 0.025391 0.794922
f 53/88/53 55/90/55 56/91/56
vt 0.019531 0.800781
f 52/87/52 51/86/51 56/92/56
vt 0.005859 0.800781
f 52/87/52 56/92/56 55/93/55
vt 0.033203 0.794922
vt 0.033203 0.800781
f 54/86/54 53/94/53 50/95/50
f 54/86/54 50/95/50 49/92/49
vt 0.000000 0.789063
f 54/96/54 49/84/49 52/87/52
vt 0.000000 0.794922
f 54/96/54 52/87/52 55/97/55
f 50/85/50 53/88/53 56/91/56
f 50/85/50 56/91/56 51/86/51
vt 0.001953 0.958984
vt 0.015625 0.958984
vt 0.015625 0.960938
f 57/98/57 58/99/58 59/100/59
vt 0.001953 0.960938
f 57/98/57 59/100/59 60/101/60
vt 0.017578 0.958984
vt 0.031250 0.958984
vt 0.031250 0.960938
f 61/102/61 62/103/62 63/104/63
vt 0.017578 0.960938
f 61/102/61 63/104/63 64/105/64
vt 0.015625 0.962891
f 60/101/60 59/100/59 64/106/64
vt 0.001953 0.962891
f 60/101/60 64/106/64 63/107/63
vt 0.029297 0.960938
vt 0.029297 0.962891
f 62/100/62 61/108/61 58/109/58
f 62/100/62 58/109/58 57/106/57
vt 0.000000 0.958984
f 62/110/62 57/98/57 60/101/60
vt 0.000000 0.960938
f 62/110/62 60/101/60 63/111/63
f 58/99/58 61/102/61 64/105/64
f 58/99/58 64/105/64 59/100/59
vt 0.033203 0.849609
vt 0.035156 0.849609
vt 0.035156 0.857422
f 65/112/65 66/113/66 67/114/67
vt 0.033203 0.857422
f 65/112/65 67/114/67 68/115/68
vt 0.041016 0.849609
vt 0.042969 0.849609
vt 0.042969 0.857422
f 69/116/69 70/117/70 71/118/71
vt 0.041016 0.857422
f 69/116/69 71/118/71 72/119/72
vt 0.035156 0.863281
f 68/115/68 67/114/67 72/120/72
vt 0.033203 0.863281
f 68/115/68 72/120/72 71/121/71
vt 0.037109 0.857422
vt 0.037109 0.863281
f 70/114/70 69/122/69 66/123/66
f 70/114/70 66/123/66 65/120/65
vt 0.027344 0.849609
f 70/124/70 65/112/65 68/115/68
vt 0.027344 0.857422
f 70/124/70 68/115/68 71/125/71
f 66/113/66 69/116/69 72/119/72
f 66/113/66 72/119/72 67/114/67
vt 0.005859 0.914063
vt 0.015625 0.914063
vt 0.015625 0.923828
f 73/126/73 74/127/74 75/128/75
vt 0.005859 0.923828
f 73/126/73 75/128/75 76/129/76
vt 0.021484 0.914063
vt 0.031250 0.914063
vt 0.031250 0.923828
f 77/130/77 78/131/78 79/132/79
vt 0.021484 0.923828
f 77/130/77 79/132/79 80/133/80
vt 0.015625 0.929688
f 76/129/76 75/128/75 80/134/80
vt 0.005859 0.929688
f 76/129/76 80/134/80 79/135/79
vt 0.025391 0.923828
vt 0.025391 0.929688
f 78/128/78 77/136/77 74/137/74
f 78/128/78 74/137/74 73/134/73
vt 0.000000 0.914063
f 78/138/78 73/126/73 76/129/76
vt 0.000000 0.923828
f 78/138/78 76/129/76 79/139/79
f 74/127/74 77/130/77 80/133/80
f 74/127/74 80/133/80 75/128/75
vt 0.007813 0.984375
vt 0.009766 0.984375
vt 0.009766 0.986328
f 81/140/81 82/141/82 83/142/83
vt 0.007813 0.986328
f 81/140/81 83/142/83 84/143/84
vt 0.011719 0.984375
vt 0.013672 0.984375
vt 0.013672 0.986328
f 85/144/85 86/145/86 87/146/87
vt 0.011719 0.986328
f 85/144/85 87/146/87 88/147/88
vt 0.009766 0.988281
f 84/143/84 83/142/83 88/148/88
vt 0.007813 0.988281
f 84/143/84 88/148/88 87/149/87
vt 0.011719 0.988281
f 86/142/86 85/147/85 82/150/82
f 86/142/86 82/150/82 81/148/81
vt 0.005859 0.984375
f 86/151/86 81/140/81 84/143/84
vt 0.005859 0.986328
f 86/151/86 84/143/84 87/152/87
f 82/141/82 85/144/85 88/147/88
f 82/141/82 88/147/88 83/142/83
vt 0.005859 0.890625
vt 0.015625 0.890625
vt 0.015625 0.900391
f 89/153/89 90/154/90 91/155/91
vt 0.005859 0.900391
f 89/153/89 91/155/91 92/156/92
vt 0.021484 0.890625
vt 0.031250 0.890625
vt 0.031250 0.900391
f 93/157/93 94/158/94 95/159/95
vt 0.021484 0.900391
f 93/157/93 95/159/95 96/160/96
vt 0.015625 0.906250
f 92/156/92 91/155/91 96/161/96
vt 0.005859 0.906250
f 92/156/92 96/161/96 95/162/95
vt 0.025391 0.900391
vt 0.025391 0.906250
f 94/155/94 93/163/93 90/164/90
f 94/155/94 90/164/90 89/161/89
vt 0.000000 0.890625
f 94/165/94 89/153/89 92/156/92
vt 0.000000 0.900391
f 94/165/94 92/156/92 95/166/95
f 90/154/90 93/157/93 96/160/96
f 90/154/90 96/160/96 91/155/91
vt 0.029297 0.984375
vt 0.033203 0.984375
vt 0.033203 0.988281
f 97/167/97 98/168/98 99/169/99
vt 0.029297 0.988281
f 97/167/97 99/169/99 100/170/100
vt 0.035156 0.984375
vt 0.039063 0.984375
vt 0.039063 0.988281
f 101/171/101 102/172/102 103/173/103
vt 0.035156 0.988281
f 101/171/101 103/173/103 104/174/104
vt 0.033203 0.990234
f 100/170/100 99/169/99 104/175/104
vt 0.029297 0.990234
f 100/170/100 104/175/104 103/176/103
vt 0.037109 0.988281
vt 0.037109 0.990234
f 102/169/102 101/177/101 98/178/98
f 102/169/102 98/178/98 97/175/97
vt 0.027344 0.984375
f 102/179/102 97/167/97 100/170/100
vt 0.027344 0.988281
f 102/179/102 100/170/100 103/180/103
f 98/168/98 101/171/101 104/174/104
f 98/168/98 104/174/104 99/169/99
vt 0.003906 0.875000
vt 0.029297 0.875000
vt 0.029297 0.878906
f 105/181/105 106/182/106 107/183/107
vt 0.003906 0.878906
f 105/181/105 107/183/107 108/184/108
vt 0.033203 0.875000
vt 0.058594 0.875000
vt 0.058594 0.878906
f 109/185/109 110/186/110 111/187/111
vt 0.033203 0.878906
f 109/185/109 111/187/111 112/188/112
vt 0.029297 0.882813
f 108/184/108 107/183/107 112/189/112
vt 0.003906 0.882813
f 108/184/108 112/189/112 111/190/111
vt 0.054688 0.878906
vt 0.054688 0.882813
f 110/183/110 109/191/109 106/192/106
f 110/183/110 106/192/106 105/189/105
vt 0.000000 0.875000
f 110/193/110 105/181/105 108/184/108
vt 0.000000 0.878906
f 110/193/110 108/184/108 111/194/111
f 106/182/106 109/185/109 112/188/112
f 106/182/106 112/188/112 107/183/107
vt 0.052734 0.970703
vt 0.054688 0.970703
vt 0.054688 0.974609
f 113/195/113 114/196/114 115/197/115
vt 0.052734 0.974609
f 113/195/113 115/197/115 116/198/116
vt 0.056641 0.970703
vt 0.058594 0.970703
vt 0.058594 0.974609
f 117/199/117 118/200/118 119/201/119
vt 0.056641 0.974609
f 117/199/117 119/201/119 120/202/120
vt 0.054688 0.976563
f 116/198/116 115/197/115 120/203/120
vt 0.052734 0.976563
f 116/198/116 120/203/120 119/204/119
vt 0.056641 0.976563
f 118/197/118 117/202/117 114/205/114
f 118/197/118 114/205/114 113/203/113
vt 0.050781 0.970703
f 118/206/118 113/195/113 116/198/116
vt 0.050781 0.974609
f 118/206/118 116/198/116 119/207/119
f 114/196/114 117/199/117 120/202/120
f 114/196/114 120/202/120 115/197/115
vt 0.058594 0.902344
vt 0.060547 0.902344
vt 0.060547 0.908203
f 121/208/121 122/209/122 123/210/123
vt 0.058594 0.908203
f 121/208/121 123/210/123 124/211/124
vt 0.066406 0.902344
vt 0.068359 0.902344
vt 0.068359 0.908203
f 125/212/125 126/213/126 127/214/127
vt 0.066406 0.908203
f 125/212/125 127/214/127 128/215/128
vt 0.060547 0.914063
f 124/211/124 123/210/123 128/216/128
vt 0.058594 0.914063
f 124/211/124 128/216/128 127/217/127
vt 0.062500 0.908203
vt 0.062500 0.914063
f 126/210/126 125/218/125 122/219/122
f 126/210/126 122/219/122 121/216/121
vt 0.052734 0.902344
f 126/220/126 121/208/121 124/211/124
vt 0.052734 0.908203
f 126/220/126 124/211/124 127/221/127
f 122/209/122 125/212/125 128/215/128
f 122/209/122 128/215/128 123/210/123
vt 0.005859 0.968750
vt 0.015625 0.968750
vt 0.015625 0.974609
f 129/222/129 130/223/130 131/224/131
vt 0.005859 0.974609
f 129/222/129 131/224/131 132/225/132
vt 0.021484 0.968750
vt 0.031250 0.968750
vt 0.031250 0.974609
f 133/226/133 134/227/134 135/228/135
vt 0.021484 0.974609
f 133/226/133 135/228/135 136/229/136
vt 0.015625 0.980469
f 132/225/132 131/224/131 136/230/136
vt 0.005859 0.980469
f 132/225/132 136/230/136 135/231/135
vt 0.025391 0.974609
vt 0.025391 0.980469
f 134/224/134 133/232/133 130/233/130
f 134/224/134 130/233/130 129/230/129
vt 0.000000 0.968750
f 134/234/134 129/222/129 132/225/132
vt 0.000000 0.974609
f 134/234/134 132/225/132 135/235/135
f 130/223/130 133/226/133 136/229/136
f 130/223/130 136/229/136 131/224/131
vt 0.001953 0.949219
vt 0.013672 0.949219
vt 0.013672 0.951172
f 137/236/137 138/237/138 139/238/139
vt 0.001953 0.951172
f 137/236/137 139/238/139 140/239/140
vt 0.015625 0.949219
vt 0.027344 0.949219
vt 0.027344 0.951172
f 141/240/141 142/241/142 143/242/143
vt 0.015625 0.951172
f 141/240/141 143/242/143 144/243/144
vt 0.013672 0.953125
f 140/239/140 139/238/139 144/244/144
vt 0.001953 0.953125
f 140/239/140 144/244/144 143/245/143
vt 0.025391 0.951172
vt 0.025391 0.953125
f 142/238/142 141/246/141 138/247/138
f 142/238/142 138/247/138 137/244/137
vt 0.000000 0.949219
f 142/248/142 137/236/137 140/239/140
vt 0.000000 0.951172
f 142/248/142 140/239/140 143/249/143
f 138/237/138 141/240/141 144/243/144
f 138/237/138 144/243/144 139/238/139
vt 0.005859 0.849609
vt 0.007813 0.849609
vt 0.007813 0.857422
f 145/250/145 146/251/146 147/252/147
vt 0.005859 0.857422
f 145/250/145 147/252/147 148/253/148
vt 0.013672 0.849609
vt 0.015625 0.849609
vt 0.015625 0.857422
f 149/254/149 150/255/150 151/256/151
vt 0.013672 0.857422
f 149/254/149 151/256/151 152/257/152
vt 0.007813 0.863281
f 148/253/148 147/252/147 152/258/152
vt 0.005859 0.863281
f 148/253/148 152/258/152 151/259/151
vt 0.009766 0.857422
vt 0.009766 0.863281
f 150/252/150 149/260/149 146/261/146
f 150/252/150 146/261/146 145/258/145
vt 0.000000 0.849609
f 150/262/150 145/250/145 148/253/148
vt 0.000000 0.857422
f 150/262/150 148/253/148 151/263/151
f 146/251/146 149/254/149 152/257/152
f 146/251/146 152/257/152 147/252/147
# 228 faces, 263 coords texture

# End of File
